<svg width="248" height="248" viewBox="0 0 248 248" fill="none" xmlns="http://www.w3.org/2000/svg">
<path fill-rule="evenodd" clip-rule="evenodd" d="M135.333 97.7071C123.744 72.5604 96.1012 56.3668 65.531 62.4222L65.5099 62.4265C41.4702 67.2554 21.9921 86.3964 16.9404 110.48C8.37728 150.919 39.1618 186.849 78.3269 186.849C103.63 186.849 125.416 171.87 135.337 150.315H161.625V160.545C161.625 175.031 173.444 186.849 187.929 186.849C202.415 186.849 214.233 175.031 214.233 160.545V149.056C224.81 145.645 232.5 135.696 232.5 124.011C232.5 109.525 220.682 97.7071 206.196 97.7071H135.333ZM68.6648 78.1875C93.1447 73.3438 114.943 87.4373 122.353 108.42L124.246 113.781H206.196C211.804 113.781 216.426 118.403 216.426 124.011C216.426 129.619 211.804 134.241 206.196 134.241H198.159V160.545C198.159 166.153 193.537 170.775 187.929 170.775C182.321 170.775 177.699 166.153 177.699 160.545V134.241H124.24L122.35 139.61C115.957 157.776 98.6492 170.775 78.3269 170.775C49.176 170.775 26.2571 144.054 32.6668 113.803L32.6704 113.786C36.3889 96.0459 50.8807 81.7644 68.6648 78.1875ZM78.3269 113.781C72.7186 113.781 68.0967 118.403 68.0967 124.011C68.0967 129.619 72.7186 134.241 78.3269 134.241C83.9351 134.241 88.5571 129.619 88.5571 124.011C88.5571 118.403 83.9351 113.781 78.3269 113.781ZM52.023 124.011C52.023 109.525 63.8414 97.7071 78.3269 97.7071C92.8124 97.7071 104.631 109.525 104.631 124.011C104.631 138.496 92.8124 150.315 78.3269 150.315C63.8414 150.315 52.023 138.496 52.023 124.011Z" fill="url(#paint0_linear_1425_1749)"/>
<defs>
<linearGradient id="paint0_linear_1425_1749" x1="221.227" y1="178.162" x2="116.7" y2="1.33024" gradientUnits="userSpaceOnUse">
<stop offset="0.0260417" stop-color="#FA7250"/>
<stop offset="0.401042" stop-color="#FF1893"/>
<stop offset="0.994792" stop-color="#A78AFF"/>
</linearGradient>
</defs>
</svg>
